<?xml version="1.0" encoding="utf-8"?>
<!-- Generator: Adobe Illustrator 27.3.1, SVG Export Plug-In . SVG Version: 6.00 Build 0)  -->
<svg version="1.1"
	 id="Logo" xmlns:svg="http://www.w3.org/2000/svg" xmlns:sodipodi="http://sodipodi.sourceforge.net/DTD/sodipodi-0.dtd" xmlns:inkscape="http://www.inkscape.org/namespaces/inkscape"
	 xmlns="http://www.w3.org/2000/svg" xmlns:xlink="http://www.w3.org/1999/xlink" x="0px" y="0px" viewBox="0 0 500 500"
	 style="enable-background:new 0 0 500 500;" xml:space="preserve">
<style type="text/css">
	.st0{fill:#FFFFFF;}
	.st1{fill:url(#path22_00000153688796869673677750000007117386613265086627_);}
	.st2{fill:#DA4638;}
</style>
<sodipodi:namedview  bordercolor="#ffffff" borderopacity="1" id="namedview1" inkscape:current-layer="layer1" inkscape:cx="3785.4961" inkscape:cy="302.28815" inkscape:deskcolor="#505050" inkscape:document-units="mm" inkscape:pagecheckerboard="1" inkscape:pageopacity="0" inkscape:showpageshadow="0" inkscape:window-height="1377" inkscape:window-maximized="1" inkscape:window-width="2560" inkscape:window-x="-8" inkscape:window-y="-8" inkscape:zoom="1.4142136" pagecolor="#505050" showguides="false">
	<sodipodi:guide  id="guide22" inkscape:locked="false" orientation="1,0" position="347.74663,51.447482"></sodipodi:guide>
	<sodipodi:guide  id="guide24" inkscape:locked="false" orientation="1,0" position="374.22446,80.570032"></sodipodi:guide>
	<sodipodi:guide  id="guide27" inkscape:locked="false" orientation="0.86868534,0.49536428" position="480.5306,79.641476">
		</sodipodi:guide>
	<sodipodi:guide  id="guide28" inkscape:locked="false" orientation="0.86868501,0.49536486" position="473.16897,76.998905">
		</sodipodi:guide>
	<sodipodi:guide  id="guide29" inkscape:locked="false" orientation="0,-1" position="477.32749,85.258121"></sodipodi:guide>
	<sodipodi:guide  id="guide32" inkscape:locked="false" orientation="0.86868102,0.49537187" position="608.3102,72.864045">
		</sodipodi:guide>
	<sodipodi:guide  id="guide35" inkscape:locked="false" orientation="1,0" position="949.07064,-33.182414"></sodipodi:guide>
	<sodipodi:guide  id="guide36" inkscape:locked="false" orientation="0,-1" position="942.97374,-55.932885"></sodipodi:guide>
	<sodipodi:guide  id="guide37" inkscape:locked="false" orientation="0,-1" position="999.18852,74.376993"></sodipodi:guide>
	<sodipodi:guide  id="guide38" inkscape:locked="false" orientation="0.86867989,0.49537385" position="999.18852,74.376993">
		</sodipodi:guide>
</sodipodi:namedview>
<defs>
	
		<inkscape:path-effect  apply_no_radius="true" apply_with_radius="true" chamfer_steps="1" effect="fillet_chamfer" flexible="false" hide_knots="false" id="path-effect37" is_visible="true" lpeversion="1" method="auto" mode="F" nodesatellites_param="F,0,0,1,0,0,0,1 @ F,0,0,1,0,1.1081054,0,1 @ F,0,0,1,0,1.0388313,0,1 @ F,0,0,1,0,0.6520675,0,1 @ F,0,0,1,0,0.29776015,0,1 @ F,0,0,1,0,0,0,1" only_selected="false" radius="0" unit="px" use_knot_distance="true">
		</inkscape:path-effect>
	
		<inkscape:path-effect  apply_no_radius="true" apply_with_radius="true" chamfer_steps="1" effect="fillet_chamfer" flexible="false" hide_knots="false" id="path-effect28" is_visible="true" lpeversion="1" method="auto" mode="F" nodesatellites_param="F,0,1,1,0,0.65912723,0,1 @ F,0,1,1,0,0.65912723,0,1 @ F,0,1,1,0,0.65912723,0,1 @ F,0,1,1,0,0.65912723,0,1 @ F,0,1,1,0,0.65912723,0,1 @ F,0,1,1,0,0.65912723,0,1 @ F,0,1,1,0,0.65912723,0,1 @ F,0,1,1,0,0.65912723,0,1 @ F,0,1,1,0,0.65912723,0,1 @ F,0,1,1,0,0.65912723,0,1" only_selected="false" radius="0" unit="px" use_knot_distance="true">
		</inkscape:path-effect>
	
		<inkscape:path-effect  apply_no_radius="true" apply_with_radius="true" chamfer_steps="1" effect="fillet_chamfer" flexible="false" hide_knots="false" id="path-effect12" is_visible="true" lpeversion="1" method="auto" mode="F" nodesatellites_param="F,0,0,1,0,0,0,1 @ F,0,0,1,0,0.893571,0,1 @ F,0,0,1,0,1.3704017,0,1 @ F,0,0,1,0,1.642703,0,1 @ F,0,0,1,0,0,0,1 @ F,0,0,1,0,0,0,1 @ F,0,0,1,0,0,0,1" only_selected="false" radius="0" unit="px" use_knot_distance="true">
		</inkscape:path-effect>
</defs>
<g id="layer1" transform="translate(-41.845089,-60.495777)" inkscape:groupmode="layer" inkscape:label="Layer 1">
	
		<rect id="rect19" x="41.85" y="60.5" inkscape:export-filename="S1\Watermarked\rect19.png" inkscape:export-xdpi="616.51544" inkscape:export-ydpi="616.51544" width="500" height="500">
	</rect>
	<path class="st0" d="M485.56,108.69H98.13c-4.47,0-8.09,3.62-8.09,8.09v387.43c0,4.47,3.62,8.09,8.09,8.09h387.43
		c4.47,0,8.09-3.62,8.09-8.09V116.78C493.65,112.31,490.03,108.69,485.56,108.69z M477.49,494.17c0,1.09-0.88,1.97-1.97,1.97H108.18
		c-1.09,0-1.97-0.88-1.97-1.97V126.82c0-1.09,0.88-1.97,1.97-1.97h367.34c1.09,0,1.97,0.88,1.97,1.97V494.17z"/>
	
		<linearGradient id="path22_00000146479778219239878030000015228984958900036234_" gradientUnits="userSpaceOnUse" x1="-2457.5303" y1="428.8579" x2="-2457.5303" y2="186.3879" gradientTransform="matrix(0.6862 0 0 -0.6115 1978.1427 478.2013)">
		<stop  offset="0" style="stop-color:#5BB35D"/>
		<stop  offset="1" style="stop-color:#95FAAE"/>
	</linearGradient>
	<path id="path22" style="fill:url(#path22_00000146479778219239878030000015228984958900036234_);" d="M171.02,192.08
		c-2.88,0-5.22,2.34-5.22,5.22v15.86c0,2.41,1.95,4.36,4.36,4.36h6.92c0.97,0,1.82,0.48,2.33,1.22l6.87,12.04h0L286.6,406.71
		c0.95,1.67,2.5,2.61,4.15,2.91v0c2.38,0.43,4.98-0.51,6.35-2.91l101.43-177.87v0l5.76-10.1c0.51-0.74,1.36-1.22,2.33-1.22h6.92
		c2.41,0,4.36-1.95,4.36-4.36V197.3c0-2.88-2.34-5.22-5.22-5.22h-21.62c-4.85,0-9.06,2.72-11.21,6.71l-8.41,14.65v0l-1.07,1.87
		l-0.16,0.29l-27.14,47.6l-17.02,29.84l-31.32,54.93c-1.16,2.04-4.63,1.95-5.74,0l-31.32-54.93l-17.02-29.84l-28.37-49.76v0
		l-8.41-14.65c-2.15-3.99-6.36-6.71-11.21-6.71L171.02,192.08z"/>
	<path id="path36" class="st2" d="M184.68,242.15v139.33c0,0.66-0.54,1.2-1.2,1.2h-14.51c-1.46,0-2.64,1.18-2.64,2.64c0,0,0,0,0,0
		v26.26c0,2.32,1.88,4.2,4.2,4.2h42.83c2.48,0,4.48-2.01,4.48-4.48V300.31L184.68,242.15z"/>
	<path id="path38" class="st2" d="M399.01,242.15v139.33c0,0.66,0.54,1.2,1.2,1.2h14.51c1.46,0,2.64,1.18,2.64,2.64c0,0,0,0,0,0
		v26.26c0,2.32-1.88,4.2-4.2,4.2h-42.83c-2.48,0-4.48-2.01-4.48-4.48V300.31L399.01,242.15z"/>
</g>
</svg>
